<svg width="104" height="21" viewBox="0 0 104 21" fill="none" xmlns="http://www.w3.org/2000/svg">
<g id="Social media">
<g id="Facebook">
<path id="facebook-f-brands (1)" d="M11.2562 12.0653L11.8371 8.37732H8.2047V5.98332C8.17918 5.70748 8.21776 5.42959 8.31758 5.17027C8.41739 4.91095 8.57588 4.67687 8.78128 4.4854C8.98667 4.29394 9.23369 4.15001 9.504 4.0643C9.77431 3.97859 10.061 3.9533 10.3427 3.99032H11.9942V0.850318C11.0232 0.69759 10.0421 0.614367 9.05866 0.601318C6.06671 0.601318 4.11143 2.36832 4.11143 5.56532V8.37632H0.786926V12.0643H4.11245V20.9813H8.2047V12.0653H11.2562Z" fill="#1D1D1F"/>
</g>
<g id="instagram">
<path id="instagram-brands (1)" d="M46.8957 4.99129C45.9672 4.99129 45.0595 5.25955 44.2875 5.76214C43.5154 6.26474 42.9137 6.9791 42.5583 7.81489C42.203 8.65068 42.11 9.57036 42.2912 10.4576C42.4723 11.3449 42.9195 12.1599 43.576 12.7996C44.2326 13.4393 45.0691 13.8749 45.9798 14.0514C46.8905 14.2279 47.8345 14.1373 48.6923 13.7911C49.5502 13.4449 50.2834 12.8587 50.7993 12.1065C51.3151 11.3543 51.5905 10.4699 51.5905 9.56529C51.5915 8.96432 51.4708 8.36907 51.2353 7.81365C50.9997 7.25823 50.654 6.75358 50.2178 6.32863C49.7817 5.90369 49.2637 5.56681 48.6936 5.33732C48.1235 5.10783 47.5125 4.99024 46.8957 4.99129ZM46.8957 12.5383C46.2922 12.5383 45.7022 12.3639 45.2004 12.0372C44.6986 11.7106 44.3075 11.2462 44.0765 10.703C43.8456 10.1598 43.7851 9.56199 43.9029 8.98528C44.0206 8.40858 44.3112 7.87884 44.738 7.46306C45.1648 7.04728 45.7085 6.76413 46.3004 6.64941C46.8923 6.5347 47.5059 6.59358 48.0635 6.81859C48.6211 7.04361 49.0976 7.42467 49.4329 7.91358C49.7682 8.40248 49.9472 8.97728 49.9472 9.56529C49.9456 10.3533 49.6236 11.1086 49.0516 11.6658C48.4797 12.223 47.7045 12.5367 46.8957 12.5383ZM52.8765 4.80429C52.8765 5.01532 52.8123 5.22161 52.692 5.39708C52.5716 5.57255 52.4006 5.70931 52.2005 5.79007C52.0004 5.87083 51.7802 5.89196 51.5677 5.85079C51.3553 5.80962 51.1601 5.70799 51.007 5.55877C50.8538 5.40955 50.7495 5.21943 50.7072 5.01245C50.665 4.80547 50.6867 4.59093 50.7696 4.39596C50.8525 4.201 50.9928 4.03435 51.1729 3.91711C51.353 3.79987 51.5648 3.73729 51.7814 3.73729C51.9254 3.73676 52.0681 3.76399 52.2013 3.81741C52.3344 3.87083 52.4555 3.94939 52.5573 4.04857C52.6592 4.14774 52.74 4.26557 52.7949 4.39527C52.8499 4.52496 52.878 4.66397 52.8776 4.80429H52.8765ZM55.9814 5.88629C56.0116 4.49935 55.4803 3.15655 54.5023 2.14829C53.4654 1.19869 52.0885 0.681572 50.6657 0.707287C49.1538 0.623287 44.6233 0.623287 43.1114 0.707287C41.6889 0.679639 40.3119 1.19542 39.2747 2.14429C38.301 3.15473 37.7723 4.49659 37.8018 5.88229C37.7156 7.35529 37.7156 11.7693 37.8018 13.2423C37.7716 14.6292 38.3029 15.972 39.2809 16.9803C40.3182 17.9286 41.6943 18.4453 43.1165 18.4203C44.6284 18.5043 49.1589 18.5043 50.6708 18.4203C52.0944 18.4498 53.4726 17.9321 54.5075 16.9793C55.48 15.9685 56.0089 14.6275 55.9814 13.2423C56.0717 11.7693 56.0717 7.35929 55.9814 5.88629ZM54.0312 14.8203C53.8759 15.2053 53.6408 15.5549 53.3406 15.8474C53.0404 16.1399 52.6815 16.3689 52.2864 16.5203C51.0814 16.9863 48.2208 16.8783 46.8896 16.8783C45.5583 16.8783 42.6937 16.9783 41.4928 16.5203C41.0976 16.3689 40.7388 16.1399 40.4386 15.8474C40.1383 15.5549 39.9032 15.2053 39.7479 14.8203C39.2696 13.6463 39.3804 10.8593 39.3804 9.56229C39.3804 8.26529 39.2778 5.47429 39.7479 4.30429C39.9032 3.91932 40.1383 3.56968 40.4386 3.27719C40.7388 2.9847 41.0976 2.75563 41.4928 2.60429C42.6978 2.13829 45.5583 2.24629 46.8896 2.24629C48.2208 2.24629 51.0855 2.14629 52.2864 2.60429C52.6815 2.75563 53.0404 2.9847 53.3406 3.27719C53.6408 3.56968 53.8759 3.91932 54.0312 4.30429C54.5095 5.47829 54.3987 8.26529 54.3987 9.56229C54.3987 10.8593 54.5116 13.6523 54.0312 14.8203Z" fill="#1D1D1F"/>
</g>
<g id="Twitter">
<path id="twitter-brands (1)" d="M101.666 5.41344C101.68 5.59444 101.68 5.77544 101.68 5.95644C101.691 7.52019 101.383 9.07056 100.775 10.5174C100.166 11.9643 99.2676 13.2788 98.1326 14.3846C96.9977 15.4904 95.6485 16.3653 94.1634 16.9586C92.6783 17.5519 91.087 17.8516 89.482 17.8404C87.148 17.8465 84.8618 17.1954 82.8987 15.9654C83.2426 16.0024 83.5884 16.0198 83.9343 16.0174C85.8641 16.0222 87.7392 15.3933 89.2572 14.2324C88.3622 14.2163 87.4948 13.9281 86.7762 13.4082C86.0576 12.8882 85.5237 12.1625 85.2491 11.3324C85.517 11.3739 85.7877 11.3956 86.059 11.3974C86.4399 11.3965 86.8193 11.3488 87.188 11.2554C86.2171 11.0641 85.3441 10.5512 84.7175 9.80374C84.0909 9.05631 83.7492 8.12053 83.7506 7.15544V7.10644C84.3447 7.42936 85.0086 7.61096 85.6884 7.63644C84.7786 7.04518 84.1346 6.13792 83.888 5.09982C83.6414 4.06173 83.8107 2.97107 84.3613 2.05044C85.4381 3.34175 86.7814 4.39815 88.3042 5.15115C89.827 5.90415 91.4952 6.33693 93.2006 6.42144C93.133 6.10669 93.0986 5.78602 93.098 5.46444C93.1001 4.62793 93.3597 3.81126 93.8433 3.12002C94.3268 2.42878 95.0121 1.89475 95.8104 1.58698C96.6088 1.2792 97.4836 1.21183 98.3217 1.39357C99.1598 1.57531 99.9226 1.99781 100.512 2.60644C101.472 2.42619 102.392 2.08478 103.233 1.59744C102.913 2.56194 102.243 3.37967 101.348 3.89744C102.199 3.80287 103.032 3.58479 103.817 3.25044C103.23 4.08316 102.503 4.81341 101.666 5.41044V5.41344Z" fill="#1D1D1F"/>
</g>
</g>
</svg>
